<svg width="117" height="117" viewBox="0 0 117 117" fill="none" xmlns="http://www.w3.org/2000/svg">
    <path fill-rule="evenodd" clip-rule="evenodd" d="M40.1152 0C33.5152 0 27.1858 2.62179 22.519 7.2886L0 29.8075V40.1152C0 47.3976 3.12811 53.9493 8.11398 58.5C3.12811 63.0507 0 69.6024 0 76.8848V87.1925L22.519 109.711C27.1858 114.378 33.5152 117 40.1152 117C47.3976 117 53.9493 113.872 58.5 108.886C63.0507 113.872 69.6024 117 76.8848 117C83.4848 117 89.8142 114.378 94.481 109.711L117 87.1925V76.8848C117 69.6024 113.872 63.0507 108.886 58.5C113.872 53.9493 117 47.3976 117 40.1152V29.8075L94.481 7.2886C89.8142 2.62179 83.4848 0 76.8848 0C69.6024 0 63.0507 3.1281 58.5 8.11397C53.9493 3.1281 47.3976 0 40.1152 0ZM75.3445 58.5C75.064 58.244 74.7887 57.9811 74.5191 57.7114L58.5 41.6923L42.4809 57.7114C42.2113 57.9811 41.936 58.244 41.6555 58.5C41.936 58.7559 42.2113 59.0189 42.4809 59.2886L58.5 75.3076L74.5191 59.2886C74.7887 59.0189 75.064 58.7559 75.3445 58.5ZM64.9999 87.1925V92.1153C64.9999 98.679 70.3211 104 76.8848 104C80.0368 104 83.0598 102.748 85.2886 100.519L104 81.8076V76.8848C104 70.3211 98.679 64.9999 92.1153 64.9999C88.9633 64.9999 85.9403 66.2521 83.7115 68.481L64.9999 87.1925ZM52.0001 87.1925L33.2885 68.481C31.0597 66.2521 28.0368 64.9999 24.8848 64.9999C18.321 64.9999 13 70.3211 13 76.8848V81.8076L31.7114 100.519C33.9402 102.748 36.9632 104 40.1152 104C46.6789 104 52.0001 98.679 52.0001 92.1153V87.1925ZM52.0001 24.8848V29.8075L33.2885 48.519C31.0597 50.7478 28.0368 52 24.8848 52C18.321 52 13 46.6789 13 40.1152V35.1924L31.7114 16.481C33.9402 14.2521 36.9632 13 40.1152 13C46.6789 13 52.0001 18.321 52.0001 24.8848ZM83.7115 48.519L64.9999 29.8075V24.8848C64.9999 18.321 70.3211 13 76.8848 13C80.0368 13 83.0598 14.2521 85.2886 16.481L104 35.1924V40.1152C104 46.6789 98.679 52 92.1153 52C88.9633 52 85.9403 50.7478 83.7115 48.519Z" fill="#DB8606"/>
</svg>
